<svg width="1684" height="516" viewBox="0 0 1684 516" fill="none" xmlns="http://www.w3.org/2000/svg">
<path d="M291.72 0.609863C196.56 0.609863 119.15 78.0199 119.15 173.18C119.15 268.34 196.57 345.75 291.72 345.75C386.87 345.75 464.29 268.34 464.29 173.18C464.29 78.0199 386.88 0.609863 291.72 0.609863Z" fill="url(#paint0_linear_1301_4611)"/>
<path d="M454.63 216.83C453.23 216.02 452.34 214.28 452 211.64C450.89 203.02 449.23 191.82 449.21 191.67C447.28 180.41 445.17 180.45 444.27 180.51C442.51 180.57 441.38 182.26 440.47 191.01C440.11 194.44 439.01 206.6 437.85 219.48H429.13C428.81 212.44 428.54 205.12 428.42 198.35C428.32 192.46 427.19 185.18 424.96 183.11C424.26 182.46 423.56 182.36 423.1 182.39C419.54 182.61 418.48 191.06 418.21 198.1C417.91 204.75 416.92 216.23 415.56 218.69C415.52 218.77 415.48 218.83 415.44 218.88C414.86 218.27 414.01 216.49 412.92 213.56L412.57 212.61C411.51 209.72 410.86 207.85 408.13 207.87C407.23 207.89 406.42 208.25 405.8 208.9C404.33 210.45 404.37 213.24 404.38 213.51V218.03C404.38 218.51 404.38 218.99 404.38 219.47H397.88C397.56 212.43 397.29 205.11 397.17 198.34C397.07 192.45 395.94 185.17 393.71 183.1C393.01 182.45 392.31 182.35 391.85 182.38C388.29 182.6 387.23 191.05 386.96 198.09C386.66 204.74 385.67 216.22 384.31 218.68C384.27 218.76 384.23 218.82 384.19 218.87C383.61 218.26 382.76 216.48 381.67 213.55L381.32 212.6C380.26 209.71 379.6 207.84 376.88 207.86C375.98 207.88 375.17 208.24 374.55 208.89C373.08 210.44 373.12 213.23 373.13 213.5V218.01C373.13 218.49 373.12 218.98 373.12 219.47H366.26C365.94 212.43 365.67 205.11 365.55 198.34C365.45 192.45 364.32 185.17 362.09 183.1C361.39 182.45 360.69 182.35 360.23 182.38C356.67 182.6 355.61 191.05 355.34 198.09C355.04 204.74 354.05 216.22 352.69 218.68C352.65 218.76 352.61 218.82 352.57 218.87C351.99 218.26 351.14 216.48 350.05 213.55L349.7 212.6C348.64 209.71 347.98 207.84 345.26 207.86C344.36 207.88 343.55 208.24 342.93 208.89C341.46 210.44 341.5 213.23 341.51 213.5V218.02C341.51 218.5 341.51 218.98 341.51 219.46H335.01C334.69 212.42 334.42 205.1 334.3 198.33C334.2 192.44 333.07 185.16 330.84 183.09C330.14 182.44 329.44 182.34 328.98 182.37C325.42 182.59 324.36 191.04 324.09 198.08C323.79 204.73 322.8 216.21 321.44 218.67C321.4 218.75 321.36 218.81 321.32 218.86C320.74 218.25 319.89 216.47 318.8 213.54L318.45 212.59C317.39 209.7 316.72 207.83 314.01 207.85C313.11 207.87 312.3 208.23 311.68 208.88C310.21 210.43 310.25 213.22 310.26 213.49V218C310.26 218.48 310.25 218.97 310.25 219.46H303.39C303.07 212.42 302.8 205.1 302.68 198.33C302.58 192.44 301.45 185.16 299.22 183.09C298.52 182.44 297.84 182.34 297.36 182.37C293.8 182.59 292.74 191.04 292.47 198.08C292.17 204.73 291.18 216.21 289.82 218.67C289.78 218.75 289.74 218.81 289.7 218.86C289.12 218.25 288.27 216.47 287.18 213.54L286.83 212.59C285.77 209.7 285.1 207.83 282.39 207.85C281.49 207.87 280.68 208.23 280.06 208.88C278.59 210.43 278.63 213.22 278.64 213.49V218.01C278.64 218.49 278.64 218.97 278.64 219.45H272.14C271.82 212.41 271.55 205.09 271.43 198.32C271.33 192.43 270.2 185.15 267.97 183.08C267.27 182.43 266.57 182.33 266.11 182.36C262.55 182.58 261.49 191.03 261.22 198.07C260.92 204.72 259.93 216.2 258.57 218.66C258.53 218.74 258.49 218.8 258.45 218.85C257.87 218.24 257.02 216.46 255.93 213.53L255.58 212.58C254.52 209.69 253.84 207.82 251.14 207.84C250.24 207.86 249.43 208.22 248.81 208.87C247.34 210.42 247.38 213.21 247.39 213.48L247.38 217.99C247.38 218.47 247.37 218.96 247.37 219.45H240.51C240.19 212.41 239.92 205.09 239.8 198.32C239.7 192.43 238.57 185.15 236.34 183.08C235.64 182.43 234.96 182.33 234.48 182.36C230.92 182.58 229.86 191.03 229.59 198.07C229.29 204.72 228.3 216.2 226.94 218.66C226.9 218.74 226.86 218.8 226.82 218.85C226.24 218.24 225.39 216.46 224.3 213.53L223.95 212.58C222.89 209.69 222.21 207.82 219.51 207.84C218.61 207.86 217.8 208.22 217.18 208.87C215.71 210.42 215.75 213.21 215.76 213.48V218C215.76 218.48 215.76 218.96 215.76 219.44H209.26C208.94 212.4 208.67 205.08 208.55 198.31C208.45 192.42 207.32 185.14 205.09 183.07C204.39 182.42 203.69 182.32 203.23 182.35C199.67 182.57 198.61 191.02 198.34 198.06C198.04 204.71 197.05 216.19 195.69 218.65C195.65 218.73 195.61 218.79 195.57 218.84C194.99 218.23 194.14 216.45 193.05 213.52L192.7 212.57C191.64 209.68 190.95 207.81 188.26 207.83C187.36 207.85 186.55 208.21 185.93 208.86C184.46 210.41 184.5 213.2 184.51 213.47V217.54C184.51 217.56 184.5 217.58 184.5 217.61C184.5 217.75 184.51 217.89 184.51 218.02V219.43H177.51C176.97 211.92 176.55 204.12 176.43 196.93C176.32 190.77 175.15 183.16 172.83 181.01C172.11 180.35 171.39 180.25 170.93 180.27C167.25 180.5 166.15 189.32 165.86 196.67C165.53 203.93 164.52 215.67 163.08 218.28C163.01 218.4 162.96 218.49 162.91 218.56C162.29 217.98 161.38 216.08 160.2 212.9L159.83 211.91C158.74 208.95 158.02 206.98 155.36 206.98C155.32 206.98 155.28 206.98 155.24 206.98C154.31 207 153.48 207.37 152.85 208.04C151.33 209.64 151.37 212.55 151.38 212.83V219.43H144.24C143.09 206.55 141.98 194.4 141.62 190.96C140.71 182.21 139.58 180.52 137.82 180.46C136.91 180.42 134.81 180.36 132.88 191.65C132.86 191.76 131.21 202.96 130.09 211.59C129.75 214.22 128.87 215.97 127.46 216.78C126.61 217.27 125.66 217.36 124.81 217.31C125.25 218.96 125.71 220.59 126.19 222.21H141.68C143.17 238.83 144.66 255.79 144.69 256.08C144.93 259.55 145.94 267.63 149.96 267.68C149.97 267.68 149.98 267.68 149.99 267.68C150.47 267.68 151.18 267.53 151.83 266.86C154.55 264.06 154.29 252.45 154.15 249.02V222.21H174.92C176.3 240.28 178.26 255.93 178.28 256.06C178.32 257.43 178.63 264.37 181.28 266.77C182 267.42 182.87 267.74 183.77 267.67C185.21 267.57 188.52 267.33 187.41 222.21H206.59C207.42 239.41 208.54 254.3 208.56 254.47C208.6 255.78 208.9 262.43 211.45 264.74C212.15 265.37 212.98 265.68 213.87 265.61C215.25 265.51 218.44 265.28 218.54 222.22H237.84C238.67 239.42 239.79 254.31 239.81 254.48C239.85 255.79 240.15 262.44 242.69 264.75C243.39 265.38 244.21 265.69 245.12 265.62C246.5 265.52 249.68 265.29 250.13 222.23H269.47C270.3 239.43 271.42 254.32 271.44 254.49C271.48 255.8 271.78 262.45 274.33 264.76C275.03 265.39 275.86 265.7 276.75 265.63C278.13 265.53 281.32 265.3 281.42 222.24H300.72C301.55 239.44 302.67 254.33 302.69 254.5C302.73 255.81 303.03 262.46 305.57 264.77C306.27 265.4 307.1 265.71 308 265.64C309.38 265.54 312.56 265.31 313.01 222.25H332.35C333.18 239.45 334.3 254.34 334.32 254.51C334.36 255.82 334.66 262.47 337.21 264.78C337.91 265.41 338.73 265.72 339.63 265.65C341.01 265.55 344.2 265.32 344.3 222.26H363.6C364.43 239.46 365.55 254.35 365.57 254.52C365.61 255.83 365.91 262.48 368.45 264.79C369.15 265.42 369.98 265.73 370.88 265.66C372.26 265.56 375.44 265.33 375.89 222.27H395.23C396.06 239.47 397.18 254.36 397.2 254.53C397.24 255.84 397.54 262.49 400.09 264.8C400.73 265.38 401.48 265.68 402.28 265.68C402.36 265.68 402.43 265.68 402.51 265.67C403.89 265.57 407.08 265.34 407.18 222.28H426.48C427.31 239.48 428.43 254.37 428.45 254.54C428.49 255.85 428.79 262.5 431.33 264.81C432.03 265.44 432.87 265.75 433.76 265.68C437.92 265.38 438.45 254.49 438.39 248.02C438.39 247.77 438.3 247.55 438.18 247.34C438.76 240.81 439.58 231.5 440.41 222.28H457.15C457.65 220.59 458.13 218.89 458.58 217.18C457.58 217.41 455.97 217.61 454.63 216.83ZM128.44 219.48C128.59 219.41 128.73 219.34 128.88 219.26C131.09 218 132.45 215.56 132.91 212C134.02 203.4 135.68 192.23 135.69 192.15C136.24 188.92 137.07 185.76 137.73 184.16C138.05 185.21 138.49 187.28 138.91 191.31C139.27 194.71 140.35 206.72 141.5 219.49H128.44V219.48ZM149.94 264.93C149.18 264.6 147.87 260.84 147.52 255.92C147.49 255.61 146.01 238.82 144.53 222.27H151.42V249.14C151.73 256.56 151.04 263.8 149.94 264.93ZM154.21 219.48V212.84C154.19 211.99 154.39 210.55 154.91 210.01C155.04 209.88 155.16 209.83 155.34 209.82C155.98 209.79 156.11 209.8 157.25 212.92L157.62 213.92C158.44 216.11 159.24 218.08 160.15 219.48H154.21V219.48ZM165.67 219.48C167.81 215.16 168.61 198.73 168.7 196.84C168.95 190.37 170.1 184.1 171.07 183.17C172.08 184.17 173.57 189.87 173.7 197.03C173.82 204.21 174.24 211.99 174.78 219.48H165.67V219.48ZM183.28 264.82C183.26 264.81 183.24 264.79 183.22 264.77C181.91 263.59 181.21 258.96 181.12 255.91C181.09 255.68 179.15 240.18 177.78 222.27H184.57V248.06C184.57 248.27 184.62 248.47 184.71 248.65C184.49 256.83 184.03 262.98 183.28 264.82ZM187.4 219.48C187.39 218.98 187.37 218.5 187.36 218V213.48C187.34 212.88 187.48 211.39 188.01 210.83C188.12 210.72 188.22 210.67 188.38 210.67C188.94 210.65 189.06 210.65 190.14 213.58L190.5 214.54C191.21 216.44 191.9 218.18 192.68 219.48H187.4V219.48ZM198.45 219.48C200.37 214.86 201.1 199.98 201.18 198.22C201.41 192.31 202.42 186.55 203.42 185.32C204.39 186.49 205.71 191.71 205.82 198.4C205.94 205.16 206.2 212.45 206.52 219.48H198.45V219.48ZM213.38 262.73C212.14 261.61 211.48 257.21 211.4 254.38C211.38 254.16 210.27 239.37 209.44 222.27H215.8C215.72 240.58 214.85 259.26 213.38 262.73ZM218.6 219.48C218.6 218.99 218.6 218.53 218.6 218.03V213.47C218.58 212.87 218.72 211.38 219.25 210.82C219.36 210.71 219.46 210.66 219.62 210.66C220.18 210.64 220.3 210.64 221.38 213.57L221.74 214.53C222.45 216.43 223.14 218.17 223.92 219.47H218.6V219.48ZM229.69 219.48C231.61 214.86 232.34 199.98 232.42 198.22C232.65 192.31 233.66 186.55 234.66 185.32C235.63 186.49 236.95 191.71 237.06 198.4C237.18 205.16 237.44 212.45 237.76 219.48H229.69V219.48ZM244.63 262.74C244.62 262.74 244.62 262.73 244.62 262.73C243.39 261.61 242.73 257.22 242.65 254.39C242.63 254.17 241.52 239.38 240.69 222.28H247.38C247.15 240.6 246.13 259.3 244.63 262.74ZM250.2 219.48C250.2 218.99 250.21 218.53 250.21 218.03L250.22 213.47C250.2 212.87 250.34 211.38 250.87 210.82C250.98 210.71 251.08 210.66 251.24 210.66C251.83 210.63 251.93 210.65 253 213.57L253.36 214.53C254.07 216.43 254.76 218.17 255.54 219.47H250.2V219.48ZM261.3 219.48C263.22 214.86 263.95 199.98 264.03 198.22C264.26 192.31 265.27 186.55 266.27 185.32C267.24 186.49 268.56 191.71 268.67 198.4C268.79 205.16 269.05 212.45 269.37 219.48H261.3V219.48ZM276.24 262.73C275 261.61 274.34 257.21 274.26 254.38C274.24 254.16 273.13 239.37 272.3 222.27H278.66C278.58 240.58 277.71 259.26 276.24 262.73ZM281.46 219.48C281.46 218.99 281.46 218.53 281.46 218.03V213.47C281.44 212.87 281.58 211.38 282.11 210.82C282.22 210.71 282.32 210.66 282.48 210.66C283.04 210.64 283.16 210.64 284.24 213.57L284.6 214.53C285.31 216.43 286 218.17 286.78 219.47H281.46V219.48ZM292.55 219.48C294.47 214.86 295.2 199.98 295.28 198.22C295.51 192.31 296.52 186.55 297.52 185.32C298.49 186.49 299.81 191.71 299.92 198.4C300.04 205.16 300.3 212.45 300.62 219.48H292.55V219.48ZM307.49 262.74C307.48 262.74 307.48 262.73 307.48 262.73C306.25 261.61 305.59 257.22 305.51 254.39C305.49 254.17 304.38 239.38 303.55 222.28H310.24C310.01 240.6 308.99 259.3 307.49 262.74ZM313.06 219.48C313.06 218.99 313.07 218.53 313.07 218.03V213.48C313.05 212.71 313.25 211.32 313.73 210.82C313.84 210.71 313.94 210.66 314.1 210.66C314.66 210.64 314.78 210.64 315.86 213.57L316.22 214.53C316.93 216.43 317.62 218.17 318.4 219.47H313.06V219.48ZM324.16 219.48C326.08 214.86 326.81 199.98 326.89 198.22C327.12 192.31 328.13 186.55 329.13 185.32C330.1 186.49 331.42 191.71 331.53 198.4C331.65 205.16 331.91 212.45 332.23 219.48H324.16V219.48ZM339.1 262.73C337.86 261.61 337.2 257.21 337.12 254.38C337.1 254.16 335.99 239.37 335.16 222.27H341.52C341.44 240.58 340.57 259.26 339.1 262.73ZM344.32 219.48C344.32 218.99 344.32 218.53 344.32 218.03V213.47C344.3 212.87 344.44 211.38 344.97 210.82C345.08 210.71 345.18 210.66 345.34 210.66C345.92 210.63 346.03 210.65 347.1 213.57L347.46 214.53C348.17 216.43 348.86 218.17 349.64 219.47H344.32V219.48ZM355.41 219.48C357.33 214.86 358.06 199.98 358.14 198.22C358.37 192.31 359.38 186.55 360.38 185.32C361.35 186.49 362.67 191.71 362.78 198.4C362.9 205.16 363.16 212.45 363.48 219.48H355.41V219.48ZM370.35 262.74C370.34 262.74 370.34 262.73 370.34 262.73C369.11 261.61 368.45 257.22 368.37 254.39C368.35 254.17 367.24 239.38 366.41 222.28H373.1C372.87 240.6 371.84 259.3 370.35 262.74ZM375.92 219.48C375.92 218.99 375.93 218.53 375.93 218.03V213.48C375.91 212.71 376.11 211.32 376.59 210.82C376.7 210.71 376.8 210.66 376.96 210.66C377.52 210.64 377.64 210.64 378.72 213.57L379.08 214.53C379.79 216.43 380.48 218.17 381.26 219.47H375.92V219.48ZM387.02 219.48C388.94 214.86 389.67 199.98 389.75 198.22C389.98 192.31 390.99 186.55 391.99 185.32C392.96 186.49 394.28 191.71 394.39 198.4C394.51 205.16 394.77 212.45 395.09 219.48H387.02V219.48ZM401.96 262.73C400.72 261.61 400.06 257.21 399.98 254.38C399.96 254.16 398.85 239.37 398.02 222.27H404.38C404.3 240.58 403.42 259.26 401.96 262.73ZM407.18 219.48C407.18 218.99 407.18 218.53 407.18 218.03V213.47C407.16 212.87 407.3 211.38 407.83 210.82C407.94 210.71 408.04 210.66 408.2 210.66C408.76 210.64 408.88 210.64 409.96 213.57L410.32 214.53C411.03 216.43 411.72 218.17 412.5 219.47H407.18V219.48ZM418.27 219.48C420.19 214.86 420.92 199.98 421 198.22C421.23 192.31 422.24 186.55 423.24 185.32C424.21 186.49 425.53 191.71 425.64 198.4C425.76 205.16 426.02 212.45 426.34 219.48H418.27V219.48ZM434.62 255.92C434.58 256.39 434.79 256.8 435.12 257.08C434.74 260.24 434.16 262.51 433.55 262.88C433.49 262.88 433.38 262.89 433.2 262.72C431.97 261.6 431.31 257.21 431.23 254.38C431.21 254.16 430.1 239.37 429.27 222.27H437.61C436.13 238.82 434.65 255.61 434.62 255.92ZM440.65 219.48C441.79 206.71 442.88 194.7 443.24 191.3C443.66 187.27 444.1 185.21 444.42 184.15C445.08 185.75 445.9 188.9 446.45 192.11C446.47 192.22 448.12 203.4 449.23 211.99C449.69 215.55 451.04 217.99 453.26 219.25C453.4 219.33 453.55 219.4 453.69 219.47H440.65V219.48Z" fill="white"/>
<path d="M193.75 374.95C219.49 384.77 246.11 394.92 256.54 412.62C256.63 412.77 256.7 412.92 256.79 413.07L247.18 411.37C232.23 408.44 217.83 402.62 204.39 394.05C193.29 386.98 183.39 378 174.96 367.58C181.15 370.14 187.48 372.56 193.75 374.95Z" fill="#42C1B6"/>
<path d="M146.32 327.03C149.4 336.3 153.38 345.12 158.13 353.37C151.76 349.99 145.94 346.3 141.05 342.14C136.64 338.38 132.42 334.87 128.35 331.58C129.37 331.4 130.88 330.68 131.57 328.07C131.71 327.55 131.7 327 131.54 326.47C129.91 321.06 121.57 293.84 110.82 268.13C110.69 267.62 110.57 267.11 110.44 266.6C122.54 272.32 135.21 293.63 146.32 327.03Z" fill="#42C1B6"/>
<path d="M76.7201 224.72C84.6101 226.61 95.3801 246.52 105.35 270.4C114.37 306.42 119.71 321.24 123.06 327.35C118.26 323.57 113.73 320.15 109.42 317.07C109.41 317.02 109.41 316.98 109.4 316.93C108.73 313.99 95.5601 256.65 73.6001 225.39C74.8701 224.48 75.9201 224.53 76.7201 224.72Z" fill="#42C1B6"/>
<path d="M43.6602 211.2C47.3602 210.98 50.9902 212.02 54.7402 214.33C79.3302 229.48 97.0402 292.01 102.17 312.02C90.2402 304.03 80.4502 299.07 72.7102 297.08C71.9902 296.23 70.5602 294.58 68.5702 292.36C68.5502 292.25 68.5402 292.14 68.5002 292.02L43.6602 211.2Z" fill="#42C1B6"/>
<path d="M271.51 476.54C271.36 483.51 270.16 489.54 267.87 494.95C264 504.07 258.19 511.59 241.92 504.89C227.56 498.97 221.26 480.63 214.59 461.21C210.91 450.49 207.1 439.39 201.73 430.15C186.96 404.72 151.95 386.15 149.34 384.79C113.31 362.46 99.9003 350.82 88.0703 340.55C83.0803 336.22 78.3603 332.12 72.3103 327.48C55.9103 314.91 55.0603 309.02 55.4603 307.07C55.9803 304.51 59.7603 303.03 62.8303 302.23C70.6703 300.21 89.9403 306.25 137.25 346.58C144.71 352.94 154.02 358.18 164.12 362.86C174.13 377.4 186.72 389.74 201.24 398.99C215.3 407.95 230.38 414.05 246.11 417.12L260.24 419.62C270.55 441.12 271.79 464.06 271.51 476.54Z" fill="#42C1B6"/>
<path d="M512.88 236.49C518.31 227.96 524.37 220.88 530.96 216.9C535.07 214.41 539.09 213.32 543.13 213.61L512.29 297.37C505.19 299.35 496.64 303.58 487.24 309.04C489.37 305.34 491.61 298.6 495.3 287.13L496.69 282.81C500.51 270.98 509.02 247.22 512.88 236.49Z" fill="#42C1B6"/>
<path d="M508.39 304.86C498.94 319.66 483.26 326.01 463.69 330.74C479.57 320.35 496.15 309.81 508.39 304.86Z" fill="#42C1B6"/>
<path d="M502.99 227.75C503.99 227.52 505.24 227.49 506.97 229.3L508.69 230.85C508.4 231.66 508.02 232.72 507.57 233.97C489.31 262.93 478.6 305.88 478.02 308.27C477.83 309.07 477.97 309.91 478.43 310.59C479.28 311.87 480.24 312.45 481.09 312.7C472.73 317.8 463.84 323.63 454.79 329.58C454.25 329.94 453.7 330.3 453.15 330.65C466.06 290 489.24 231.02 502.99 227.75Z" fill="#42C1B6"/>
<path d="M469.32 269.64C457.67 296.73 448.19 326.74 445.77 334.62C444.96 334.78 444.15 334.95 443.33 335.11C439.35 335.91 435.31 336.73 431.22 337.6C439.81 312.23 455.1 275.27 469.32 269.64Z" fill="#42C1B6"/>
<path d="M429.1 344.05C430.75 343.69 432.39 343.34 434.03 342.99C432.14 344.16 430.24 345.3 428.36 346.39C428.59 345.63 428.84 344.85 429.1 344.05Z" fill="#42C1B6"/>
<path d="M347.79 381.6C371.64 360.49 397.73 351.44 422.48 345.56C421.83 347.68 421.33 349.35 421.01 350.45C406.37 358.22 392.27 363.79 379.45 368.86C367.4 373.63 356.03 378.13 345.88 383.81C346.84 382.71 347.52 381.91 347.79 381.6Z" fill="#42C1B6"/>
<path d="M545.99 310.87C545.68 311.39 515.14 363.21 499.84 376.54C491.85 383.5 477.5 391.45 462.32 399.87C427.33 419.26 387.68 441.24 387.89 468.93L389.74 489.54C389.87 502.25 388.36 510.02 385.13 513.31C383.74 514.72 381.97 515.39 379.56 515.4C379.55 515.4 379.54 515.4 379.53 515.4C378.05 515.4 376.85 514.77 375.74 513.41C369.68 505.98 370.07 481.63 373.91 463.33C382.51 422.35 439.4 385.71 439.91 385.38C471.39 366.39 506.55 339.83 516.57 332.15C530.75 321.28 536.97 312.7 535.6 305.92C534.7 301.49 530.78 298.34 523.96 296.58C522.96 296.32 521.88 296.18 520.73 296.14C535.18 277.86 565.42 244.29 583.25 243.68C562.95 287.37 546.32 310.41 545.99 310.87Z" fill="#42C1B6"/>
<path d="M301.2 514H301.22C301.22 513.94 301.22 513.9 301.22 513.84C301.23 513.89 301.2 513.94 301.2 514Z" fill="#42C1B6"/>
<path d="M529.86 307.08C529.34 304.52 525.56 303.04 522.49 302.24C520.85 301.82 518.83 301.88 516.5 302.32C504.4 327.35 479.33 333.73 449.98 339.73C446.25 342.17 442.53 344.57 438.96 346.83C418.6 359.68 398.96 367.45 381.62 374.3C359.09 383.21 340.25 390.67 327.05 405.98C326.89 406.18 326.74 406.36 326.62 406.51C326.59 406.55 326.54 406.58 326.51 406.62C322.98 410.83 319.85 415.61 317.19 421.17C305.16 446.28 302.2 499.84 301.47 513.99H369.24C363.08 501.86 365.04 477.09 368.19 462.12C377.3 418.71 434.41 381.93 436.84 380.39C468.12 361.52 503.06 335.13 513.03 327.48C529.41 314.92 530.26 309.03 529.86 307.08Z" fill="#42C1B6"/>
<path d="M197.53 461.34C203.44 485.32 198.53 502.74 192.38 514H245.01C243.37 512.53 241.61 511.1 239.69 510.31C222.88 503.38 215.85 482.91 209.05 463.11C205.46 452.65 201.75 441.84 196.67 433.09C182.52 408.73 146.91 390.13 146.55 389.94C146.48 389.91 146.42 389.87 146.35 389.82C109.85 367.21 96.2402 355.39 84.2302 344.97C79.3102 340.69 74.6602 336.66 68.7502 332.13C54.5702 321.26 48.3502 312.68 49.7202 305.9C50.6202 301.47 54.5402 298.32 61.3602 296.56C62.2102 296.34 63.1202 296.19 64.0702 296.11C48.9002 279.25 18.2402 249.27 0.180176 248.14C21.5902 280.13 39.1502 310.56 39.3302 310.87C39.6202 311.37 70.1702 363.19 85.4702 376.52C94.3702 384.27 109.9 393.16 126.33 402.57C157.29 420.32 192.37 440.42 197.53 461.34Z" fill="#42C1B6"/>
<path d="M759.35 278.91C767.26 276.42 775.18 274.39 783.09 272.58C804.12 267.83 811.58 267.38 813.62 268.96C814.75 270.09 814.52 270.32 812.94 270.77L785.13 278.46L765.23 284.34C769.53 289.31 772.01 295.42 772.01 303.11C772.01 330.02 736.74 349.69 704.18 355.12C701.01 355.57 697.62 356.02 694 356.02C681.34 356.02 668.22 351.95 668.22 338.38C668.67 331.37 673.42 324.14 681.11 317.35C697.39 302.65 723.39 290.44 750.98 281.4C737.64 273.03 716.38 270.09 700.56 267.83C678.63 264.89 652.17 258.56 646.29 239.57C644.71 234.82 644.03 230.07 644.03 225.55C644.03 201.58 663.02 180.1 684.05 165.86C701.24 154.55 722.26 146.41 741.26 146.41C752.57 146.41 763.19 149.35 771.56 156.13C777.21 161.78 779.47 167.89 779.47 174.67C779.47 183.26 775.63 192.99 770.42 203.39C766.58 210.85 760.7 212.89 762.96 207.01C768.16 196.38 772 185.08 772 175.58C772 169.25 770.42 163.82 766.35 159.98C761.15 155.91 754.37 154.1 746.68 154.1C727.46 154.1 703.49 164.95 690.6 173.77C667.54 189.6 651.71 208.36 651.71 228.49C651.71 231.88 652.16 235.05 653.07 238.44C656.91 252.91 679.75 259.02 699.65 261.73C715.04 263.99 743.07 266.7 759.35 278.91ZM757.77 286.82C723.4 298.35 701.24 310.34 687.67 322.32C678.63 330.23 674.78 336.56 674.78 341.31C674.78 347.19 681.11 350.35 690.61 350.35C694.23 350.35 698.3 349.9 702.82 348.99C728.14 344.02 762.29 327.28 763.64 301.96C763.65 295.87 761.39 290.9 757.77 286.82Z" fill="#1B2228"/>
<path d="M800.51 275.29C800.51 270.32 803 265.34 808.65 261.5C814.75 257.43 822.44 255.39 830.36 255.39C836.69 255.39 843.02 256.75 848.68 259.23H848.91L852.75 254.03C854.11 251.54 861.8 256.52 860.21 259.23C859.08 262.62 857.04 266.69 856.59 270.99C856.36 274.83 857.49 279.36 861.56 280.49C873.09 282.75 892.54 271.22 900.68 262.17C904.52 258.33 907.92 263.98 895.48 276.41C889.83 282.06 874.23 289.3 864.73 287.04C857.27 285.23 851.62 280.93 848.68 272.8C842.35 278.45 827.43 289.98 815.44 289.98C812.5 289.98 809.79 289.3 807.3 287.72C802.77 284.34 800.51 280.04 800.51 275.29ZM844.82 263.76C842.56 263.08 839.39 262.63 836 262.63C824.69 262.63 809.77 266.93 807.28 277.33C806.6 280.04 807.96 282.53 811.35 282.76C822.21 281.4 836.91 272.13 844.82 263.76Z" fill="#1B2228"/>
<path d="M896.83 278.91L899.091 256.3C899.091 254.72 901.351 254.49 903.611 255.4C905.421 256.53 907.451 258.57 907.231 259.92L906.781 267.61C914.471 261.96 930.751 253.82 943.411 255.17C947.711 255.62 951.781 259.69 951.781 263.08C951.781 266.92 949.291 275.52 952.231 279.81C954.491 281.62 956.981 282.3 959.921 282.3C973.941 282.3 993.611 264.44 1000.85 260.82C1001.75 260.37 1002.66 265.34 999.271 269.64C993.841 276.65 979.15 288.63 963.32 288.63C956.76 288.63 949.53 285.92 945.46 280.04C943.2 276.65 942.521 272.81 942.521 268.73C942.521 266.24 942.75 263.76 943.2 261.04C926.47 262.85 909.281 273.7 904.991 283.2L904.761 288.4C904.991 291.34 897.071 289.3 896.851 285.69C896.601 283.89 896.37 281.63 896.83 278.91Z" fill="#1B2228"/>
<path d="M996.31 282.98C996.31 269.87 996.54 257.66 996.76 248.84C996.99 238.21 997.44 224.87 998.12 211.08C979.35 212.66 961.72 214.02 943.63 217.19C939.33 217.87 934.59 211.99 938.43 211.08C954.48 208.14 970.54 206.33 998.35 204.07C999.26 186.43 1000.39 168.57 1001.29 154.55C1001.06 150.93 1009.88 152.29 1010.56 156.81C1008.98 168.12 1007.62 185.75 1006.72 203.39C1008.76 203.39 1011.02 203.16 1013.28 202.94C1032.5 201.58 1058.28 199.55 1080.43 199.55C1093.32 199.55 1105.08 200.23 1113.22 202.04C1115.26 202.94 1117.52 205.21 1118.42 206.56C1118.65 208.37 1117.52 209.27 1115.71 209.05C1105.53 207.01 1092.87 206.34 1079.31 206.34C1055.12 206.34 1028.66 208.6 1011.48 209.96C1009.67 210.19 1008.09 210.41 1006.28 210.41L1004.7 248.4C1004.47 262.87 1003.8 284.13 1003.8 304.7C1003.8 327.76 1004.7 349.92 1007.64 360.55C1008.32 365.75 1001.31 361 999.73 356.25C997.22 348.33 996.31 313.28 996.31 282.98Z" fill="#1B2228"/>
<path d="M1023.67 275.29C1023.67 270.32 1026.16 265.34 1031.81 261.5C1037.91 257.43 1045.6 255.39 1053.52 255.39C1059.85 255.39 1066.18 256.75 1071.84 259.23H1072.06L1075.9 254.03C1077.26 251.54 1084.95 256.52 1083.36 259.23C1082.23 262.62 1080.19 266.69 1079.74 270.99C1079.51 274.83 1080.64 279.36 1084.71 280.49C1096.24 282.75 1115.69 271.22 1123.83 262.17C1127.67 258.33 1131.06 263.98 1118.63 276.41C1112.98 282.06 1097.38 289.3 1087.88 287.04C1080.42 285.23 1074.77 280.93 1071.83 272.8C1065.5 278.45 1050.58 289.98 1038.59 289.98C1035.65 289.98 1032.94 289.3 1030.45 287.72C1025.93 284.34 1023.67 280.04 1023.67 275.29ZM1067.99 263.76C1065.73 263.08 1062.56 262.63 1059.17 262.63C1047.86 262.63 1032.94 266.93 1030.45 277.33C1029.77 280.04 1031.13 282.53 1034.52 282.76C1045.38 281.4 1060.07 272.13 1067.99 263.76Z" fill="#1B2228"/>
<path d="M1263.34 181.23C1237.56 268.74 1172.9 342.45 1122.47 319.16C1120.66 317.58 1120.43 315.54 1122.7 316.22C1188.95 336.79 1245.25 221.48 1257.92 175.8C1258.82 172.41 1259.05 167.66 1259.5 164.95C1259.27 164.72 1259.5 164.5 1259.5 164.27C1260.18 161.11 1267.64 165.63 1268.55 169.92C1273.75 201.35 1276.24 243.86 1285.73 282.75C1301.33 244.08 1343.84 151.38 1352.88 143.69C1356.5 138.94 1362.83 145.27 1362.6 149.79C1359.21 184.84 1356.95 211.97 1356.95 240.24C1356.95 245.89 1356.95 251.32 1357.18 256.97C1358.54 301.51 1365.55 334.07 1382.51 339.5C1383.87 339.95 1384.32 342.44 1381.6 342.44C1356.05 342.44 1350.62 289.98 1349.04 258.33C1348.81 252.45 1348.59 246.35 1348.59 240.24C1348.59 212.43 1351.3 181.9 1354.02 154.99C1342.71 172.63 1300.21 264.2 1289.58 293.6C1289.81 299.25 1284.61 304.45 1282.34 302.42C1273.29 261.05 1266.73 220.35 1263.34 181.23Z" fill="#1B2228"/>
<path d="M1372.33 275.29C1372.33 270.32 1374.82 265.34 1380.47 261.5C1386.58 257.43 1394.26 255.39 1402.18 255.39C1408.51 255.39 1414.84 256.75 1420.5 259.23H1420.73L1424.57 254.03C1425.93 251.54 1433.61 256.52 1432.03 259.23C1430.9 262.62 1428.86 266.69 1428.41 270.99C1428.18 274.83 1429.31 279.36 1433.38 280.49C1444.91 282.75 1464.36 271.22 1472.5 262.17C1476.34 258.33 1479.74 263.98 1467.3 276.41C1461.65 282.06 1446.05 289.3 1436.55 287.04C1429.09 285.23 1423.44 280.93 1420.5 272.8C1414.17 278.45 1399.25 289.98 1387.26 289.98C1384.32 289.98 1381.61 289.3 1379.12 287.72C1374.59 284.34 1372.33 280.04 1372.33 275.29ZM1416.64 263.76C1414.38 263.08 1411.21 262.63 1407.82 262.63C1396.51 262.63 1381.59 266.93 1379.1 277.33C1378.42 280.04 1379.78 282.53 1383.17 282.76C1394.03 281.4 1408.73 272.13 1416.64 263.76Z" fill="#1B2228"/>
<path d="M1471.36 253.36C1471.36 251.78 1473.62 251.78 1475.88 252.91C1477.92 254.04 1479.27 256.3 1479.27 257.66L1479.04 266.48C1484.69 259.25 1501.43 246.13 1513.86 248.16C1519.06 249.06 1522.23 253.81 1520.64 255.62C1517.47 259.24 1514.31 257.88 1514.53 256.07L1514.76 254.26C1503.45 254.03 1484.69 267.83 1479.26 283.43C1478.58 285.24 1478.58 286.6 1477.68 293.15C1477.91 296.09 1470.45 293.15 1469.54 289.76C1468.65 287.73 1468.19 281.85 1471.36 253.36Z" fill="#1B2228"/>
<path d="M1529.47 267.83C1529.47 260.82 1530.83 253.81 1533.31 249.97C1533.54 248.84 1535.8 248.61 1538.51 249.29C1541 250.19 1542.35 252 1542.13 253.13C1540.32 254.94 1535.8 280.49 1539.19 283.43C1541 284.79 1543.26 285.47 1545.75 285.47C1559.77 285.47 1583.74 267.38 1590.52 260.6C1591.42 259.69 1593.68 261.05 1590.97 266.03C1586.67 273.94 1566.1 291.81 1550.5 292.48C1544.85 292.71 1538.74 291.35 1534.45 286.6C1531.05 282.98 1529.47 275.29 1529.47 267.83ZM1536.25 230.3C1536.7 229.62 1538.29 225.1 1538.74 223.97L1539.19 220.58C1539.19 219.22 1541.68 218.77 1543.94 219.68C1546.88 220.36 1548.69 222.17 1548.24 223.3C1548.24 224.2 1548.24 225.79 1547.56 227.14C1547.11 228.27 1545.3 233.25 1544.62 234.38C1543.94 235.28 1541.23 235.28 1539.19 234.15C1536.48 233.24 1535.12 231.2 1536.25 230.3Z" fill="#1B2228"/>
<path d="M1580.12 275.29C1580.12 270.32 1582.61 265.34 1588.26 261.5C1594.37 257.43 1602.05 255.39 1609.97 255.39C1616.3 255.39 1622.63 256.75 1628.29 259.23H1628.52L1632.36 254.03C1633.72 251.54 1641.4 256.52 1639.82 259.23C1638.69 262.62 1636.65 266.69 1636.2 270.99C1635.97 274.83 1637.1 279.36 1641.17 280.49C1652.7 282.75 1672.15 271.22 1680.29 262.17C1684.13 258.33 1687.53 263.98 1675.09 276.41C1669.44 282.06 1653.84 289.3 1644.34 287.04C1636.88 285.23 1631.23 280.93 1628.29 272.8C1621.96 278.45 1607.04 289.98 1595.05 289.98C1592.11 289.98 1589.4 289.3 1586.91 287.72C1582.38 284.34 1580.12 280.04 1580.12 275.29ZM1624.44 263.76C1622.18 263.08 1619.01 262.63 1615.62 262.63C1604.31 262.63 1589.39 266.93 1586.9 277.33C1586.22 280.04 1587.58 282.53 1590.97 282.76C1601.82 281.4 1616.52 272.13 1624.44 263.76Z" fill="#1B2228"/>
<path d="M731.02 411.44C732.81 411.44 734.35 411.14 735.64 410.54C736.93 409.94 738.28 408.98 739.69 407.66L743.03 411.09C739.78 414.7 735.82 416.5 731.18 416.5C726.53 416.5 722.68 415 719.61 412.01C716.55 409.02 715.01 405.24 715.01 400.66C715.01 396.09 716.57 392.28 719.69 389.23C722.81 386.18 726.75 384.66 731.52 384.66C736.28 384.66 740.26 386.42 743.46 389.94L740.16 393.55C738.69 392.14 737.31 391.16 736 390.6C734.7 390.04 733.16 389.76 731.4 389.76C728.29 389.76 725.68 390.76 723.57 392.77C721.46 394.78 720.4 397.34 720.4 400.47C720.4 403.59 721.45 406.2 723.54 408.3C725.66 410.39 728.15 411.44 731.02 411.44Z" fill="#1B2228"/>
<path d="M772.71 385.41V390.29H756.31V398.43H771.04V403.05H756.3V411.27H773.23V416.15H751.11V385.41H772.71V385.41Z" fill="#1B2228"/>
<path d="M804.68 385.41H809.87V416.15H804.24L786.83 393.72V416.15H781.64V385.41H786.83L804.68 408.36V385.41V385.41Z" fill="#1B2228"/>
<path d="M831.76 390.16V416.15H826.57V390.16H817.25V385.41H841.08V390.16H831.76Z" fill="#1B2228"/>
<path d="M870.07 385.41V390.29H853.67V398.43H868.401V403.05H853.67V411.27H870.6V416.15H848.48V385.41H870.07V385.41Z" fill="#1B2228"/>
<path d="M903.53 395.39C903.53 400.46 901.32 403.66 896.89 404.98L904.94 416.15H898.34L891 405.82H884.18V416.15H878.99V385.41H890.42C895.11 385.41 898.47 386.2 900.49 387.78C902.52 389.37 903.53 391.9 903.53 395.39ZM896.63 399.74C897.69 398.83 898.21 397.37 898.21 395.36C898.21 393.35 897.67 391.97 896.58 391.23C895.5 390.48 893.56 390.11 890.78 390.11H884.18V401.1H890.64C893.58 401.11 895.57 400.65 896.63 399.74Z" fill="#1B2228"/>
<path d="M931.76 390.25V398.69H945.39V403.48H931.76V416.14H926.57V385.4H947.06L947.02 390.24H931.76V390.25Z" fill="#1B2228"/>
<path d="M980.62 411.9C977.51 414.93 973.67 416.45 969.1 416.45C964.53 416.45 960.69 414.93 957.58 411.9C954.47 408.87 952.92 405.08 952.92 400.55C952.92 396.02 954.47 392.24 957.58 389.2C960.69 386.17 964.53 384.65 969.1 384.65C973.67 384.65 977.51 386.17 980.62 389.2C983.73 392.23 985.28 396.02 985.28 400.55C985.28 405.08 983.72 408.87 980.62 411.9ZM976.81 392.66C974.71 390.49 972.14 389.41 969.09 389.41C966.04 389.41 963.47 390.5 961.37 392.66C959.27 394.83 958.23 397.46 958.23 400.55C958.23 403.64 959.28 406.27 961.37 408.44C963.47 410.61 966.04 411.69 969.09 411.69C972.14 411.69 974.71 410.61 976.81 408.44C978.91 406.27 979.95 403.64 979.95 400.55C979.96 397.46 978.91 394.83 976.81 392.66Z" fill="#1B2228"/>
<path d="M1018.13 395.39C1018.13 400.46 1015.92 403.66 1011.49 404.98L1019.54 416.15H1012.94L1005.6 405.82H998.78V416.15H993.59V385.41H1005.02C1009.71 385.41 1013.07 386.2 1015.09 387.78C1017.12 389.37 1018.13 391.9 1018.13 395.39ZM1011.22 399.74C1012.28 398.83 1012.8 397.37 1012.8 395.36C1012.8 393.35 1012.26 391.97 1011.17 391.23C1010.09 390.48 1008.15 390.11 1005.37 390.11H998.77V401.1H1005.23C1008.17 401.11 1010.17 400.65 1011.22 399.74Z" fill="#1B2228"/>
<path d="M1041.17 385.41H1046.36V416.15H1041.17V385.41Z" fill="#1B2228"/>
<path d="M1079.69 385.41H1084.88V416.15H1079.25L1061.84 393.72V416.15H1056.65V385.41H1061.84L1079.69 408.36V385.41V385.41Z" fill="#1B2228"/>
<path d="M1106.78 390.16V416.15H1101.59V390.16H1092.27V385.41H1116.1V390.16H1106.78Z" fill="#1B2228"/>
<path d="M1145.08 385.41V390.29H1128.68V398.43H1143.41V403.05H1128.68V411.27H1145.61V416.15H1123.49V385.41H1145.08V385.41Z" fill="#1B2228"/>
<path d="M1175.29 401.19H1180.48V411.7C1177.58 414.9 1173.43 416.49 1168.04 416.49C1163.5 416.49 1159.69 414.99 1156.63 412C1153.57 409.01 1152.04 405.23 1152.04 400.65C1152.04 396.08 1153.6 392.27 1156.72 389.22C1159.84 386.17 1163.62 384.65 1168.04 384.65C1172.46 384.65 1176.15 385.94 1179.08 388.52L1176.31 392.48C1175.11 391.45 1173.9 390.74 1172.68 390.35C1171.46 389.95 1170.05 389.76 1168.44 389.76C1165.33 389.76 1162.72 390.76 1160.61 392.77C1158.5 394.78 1157.44 397.42 1157.44 400.69C1157.44 403.96 1158.47 406.58 1160.52 408.56C1162.57 410.54 1165.06 411.53 1167.97 411.53C1170.89 411.53 1173.33 410.9 1175.29 409.64V401.19V401.19Z" fill="#1B2228"/>
<path d="M1213.59 395.39C1213.59 400.46 1211.38 403.66 1206.95 404.98L1215 416.15H1208.4L1201.06 405.82H1194.24V416.15H1189.05V385.41H1200.48C1205.17 385.41 1208.53 386.2 1210.55 387.78C1212.58 389.37 1213.59 391.9 1213.59 395.39ZM1206.69 399.74C1207.75 398.83 1208.27 397.37 1208.27 395.36C1208.27 393.35 1207.73 391.97 1206.64 391.23C1205.56 390.48 1203.62 390.11 1200.84 390.11H1194.24V401.1H1200.7C1203.64 401.11 1205.63 400.65 1206.69 399.74Z" fill="#1B2228"/>
<path d="M1227.18 409.15L1224.1 416.14H1218.56L1232.1 385.4H1237.64L1251.18 416.14H1245.64L1242.56 409.15H1227.18ZM1240.46 404.36L1234.87 391.7L1229.29 404.36H1240.46Z" fill="#1B2228"/>
<path d="M1266.41 390.16V416.15H1261.22V390.16H1251.9V385.41H1275.73V390.16H1266.41Z" fill="#1B2228"/>
<path d="M1283.12 385.41H1288.31V416.15H1283.12V385.41Z" fill="#1B2228"/>
<path d="M1312.62 416.15H1306.82L1294.46 385.41H1300.26L1309.71 408.36L1319.16 385.41H1324.96L1312.62 416.15Z" fill="#1B2228"/>
<path d="M1352.73 385.41V390.29H1336.33V398.43H1351.06V403.05H1336.33V411.27H1353.26V416.15H1331.14V385.41H1352.73V385.41Z" fill="#1B2228"/>
<path d="M1380.65 416.15H1375.46V385.41H1383.55L1392.83 404.71L1402.11 385.41H1410.16V416.15H1404.97V392.14L1394.24 413.47H1391.34L1380.65 392.14V416.15V416.15Z" fill="#1B2228"/>
<path d="M1442.04 385.41V390.29H1425.64V398.43H1440.37V403.05H1425.64V411.27H1442.57V416.15H1420.45V385.41H1442.04V385.41Z" fill="#1B2228"/>
<path d="M1474.23 389.43C1477.19 392.11 1478.67 395.84 1478.67 400.62C1478.67 405.4 1477.23 409.18 1474.36 411.97C1471.49 414.76 1467.09 416.15 1461.17 416.15H1450.97V385.41H1461.52C1467.03 385.41 1471.27 386.75 1474.23 389.43ZM1473.44 400.75C1473.44 393.71 1469.41 390.2 1461.35 390.2H1456.16V411.26H1461.92C1465.64 411.26 1468.49 410.37 1470.47 408.6C1472.45 406.83 1473.44 404.21 1473.44 400.75Z" fill="#1B2228"/>
<path d="M1487.11 385.41H1492.3V416.15H1487.11V385.41Z" fill="#1B2228"/>
<path d="M1516.62 411.44C1518.41 411.44 1519.95 411.14 1521.24 410.54C1522.53 409.94 1523.88 408.98 1525.29 407.66L1528.63 411.09C1525.38 414.7 1521.43 416.5 1516.78 416.5C1512.13 416.5 1508.28 415 1505.21 412.01C1502.15 409.02 1500.62 405.24 1500.62 400.66C1500.62 396.09 1502.18 392.28 1505.3 389.23C1508.42 386.18 1512.36 384.66 1517.13 384.66C1521.89 384.66 1525.87 386.42 1529.07 389.94L1525.77 393.55C1524.3 392.14 1522.92 391.16 1521.61 390.6C1520.31 390.04 1518.77 389.76 1517.02 389.76C1513.91 389.76 1511.3 390.76 1509.19 392.77C1507.08 394.78 1506.02 397.34 1506.02 400.47C1506.02 403.59 1507.07 406.2 1509.16 408.3C1511.26 410.39 1513.74 411.44 1516.62 411.44Z" fill="#1B2228"/>
<path d="M1536.71 385.41H1541.9V416.15H1536.71V385.41Z" fill="#1B2228"/>
<path d="M1575.24 385.41H1580.43V416.15H1574.8L1557.39 393.72V416.15H1552.2V385.41H1557.39L1575.24 408.36V385.41V385.41Z" fill="#1B2228"/>
<path d="M1612.31 385.41V390.29H1595.91V398.43H1610.64V403.05H1595.91V411.27H1612.84V416.15H1590.72V385.41H1612.31V385.41Z" fill="#1B2228"/>
<defs>
<linearGradient id="paint0_linear_1301_4611" x1="291.721" y1="345.75" x2="291.721" y2="0.60686" gradientUnits="userSpaceOnUse">
<stop stop-color="#E3312D"/>
<stop offset="0.1124" stop-color="#E95F32"/>
<stop offset="0.3315" stop-color="#F18F34"/>
<stop offset="0.7191" stop-color="#FDC800"/>
<stop offset="0.8114" stop-color="#FDCC04"/>
<stop offset="0.898" stop-color="#FED70F"/>
<stop offset="0.9822" stop-color="#FFEA21"/>
<stop offset="1" stop-color="#FFEF26"/>
</linearGradient>
</defs>
</svg>
